<svg width="143" height="39" viewBox="0 0 143 39" fill="none" xmlns="http://www.w3.org/2000/svg">
<path d="M3.1213 11.4348V10.3758C3.31898 10.6762 3.75819 11.2373 4.43893 12.0589L6.8022 14.925C7.694 16.0125 8.63039 17.1436 9.61137 18.3182C10.5923 19.4929 11.496 20.5646 12.3224 21.5335C13.1518 22.5069 14.0964 23.6334 15.1561 24.9132V25.7672L15.1071 22.4009C15.0744 20.4227 15.0499 18.6952 15.0335 17.2187C15.0172 15.7421 15.0001 14.1333 14.9822 12.3924C14.9674 10.65 14.9428 9.02467 14.9087 7.51655C14.8745 6.00843 14.8328 4.73539 14.7838 3.69743C14.7348 2.65797 14.6768 2.1052 14.6099 2.03911H18.1414C18.0784 2.59794 18.0449 3.15978 18.0411 3.72222C18.0069 4.71211 17.9824 5.94384 17.9675 7.41741C17.9527 8.89097 17.9363 10.5245 17.9185 12.318C17.9006 14.1116 17.8835 15.8623 17.8672 17.5702C17.8508 19.2781 17.8427 20.8696 17.8427 22.3446C17.8427 23.8197 17.81 24.9928 17.7446 25.8641V28.3268C17.7446 29.0298 17.7446 29.1694 17.7691 30.3253C17.7936 31.4812 17.8092 32.6213 17.8427 33.7434C17.8761 34.8655 17.9185 35.8726 17.9675 36.7603C18.0166 37.6481 18.0745 38.1753 18.1414 38.3376H14.6144C14.6806 38.1731 14.7386 38.0054 14.7883 37.8351C14.8577 37.5294 14.8994 37.2179 14.9131 36.9046C14.9443 36.4539 14.9711 35.778 14.9867 34.8947C15.0023 34.0115 15.0134 29.6787 15.0134 28.0722C14.7786 27.7357 14.3223 27.1822 13.6445 26.4116C12.9668 25.641 12.1879 24.7698 11.308 23.7979C10.4281 22.826 9.51624 21.8129 8.57242 20.7584C7.6286 19.7039 6.75761 18.7403 5.95945 17.8676C5.16426 16.9949 4.2524 16.0065 3.22386 14.9024C3.19264 16.8446 3.17481 22.4257 3.17481 23.8993V28.6738C3.17481 30.3839 3.17481 31.2018 3.19933 32.7092C3.22386 34.2165 3.24169 35.5076 3.27513 36.5778C3.30858 37.6481 3.35762 38.2542 3.42451 38.3804H0C0.0668849 38.2452 0.115933 37.6684 0.149376 36.6454C0.182818 35.6225 0.225178 34.3427 0.274227 32.7993C0.323276 31.2559 0.356718 30.3411 0.374554 28.4642C0.39239 26.5873 0.405767 24.7532 0.423603 22.9597C0.441439 21.1662 0.457046 19.5011 0.472652 17.9577C0.488259 16.4143 0.497177 15.2111 0.497177 14.3391V11.8877C0.497177 11.2523 0.497177 10.4051 0.472652 9.35062C0.448128 8.29614 0.432521 7.25518 0.399079 6.23224C0.365636 5.2093 0.316588 4.29904 0.249703 3.49466C0.182818 2.69028 0.100327 2.20359 0 2.03685H3.38215C3.36779 2.10411 3.33358 2.1654 3.28405 2.2126C3.25061 2.22838 3.22608 2.37257 3.20825 2.63844C3.19041 2.90432 3.1748 3.36848 3.1592 4.02189C3.14359 4.67531 3.13467 5.70501 3.13467 7.11324L3.1213 11.4348ZM54.9683 37.959C54.6056 36.8069 54.1389 35.3687 53.5681 33.6442C52.9974 31.9198 52.3493 29.9851 51.624 27.8401C50.8957 25.6981 50.1526 23.52 49.3945 21.3059C48.6365 19.0918 47.877 16.9333 47.116 14.8303C46.3579 12.7274 45.6698 10.8332 45.0515 9.14784C44.4332 7.46247 43.9129 6.09555 43.4908 5.04707C43.0628 3.99259 42.7863 3.4158 42.6592 3.32116C42.7239 3.28962 42.9535 3.20849 43.3481 3.08006C43.7427 2.95163 44.2176 2.80068 44.7728 2.62944C45.3279 2.4582 45.7292 2.31625 45.9812 2.22162C45.9812 2.41239 46.1476 3.08382 46.4806 4.23594C46.8135 5.38806 47.2646 6.81882 47.8339 8.52822C48.4017 10.2376 49.0267 12.1243 49.7089 14.1882C50.3911 16.2521 51.06 18.2747 51.7154 20.2559C52.3798 22.2387 53.0048 24.069 53.5904 25.7469C54.1761 27.4247 54.6346 28.7519 54.966 29.7282C55.2982 30.7039 55.4811 31.2221 55.5123 31.2874C55.5435 31.2213 55.7256 30.6956 56.0585 29.7102C56.3914 28.7248 56.8425 27.3729 57.4118 25.6545L59.2623 20.0914L61.3023 13.9516C61.9979 11.8591 62.6229 9.95672 63.1773 8.24432C63.7317 6.53191 64.1776 5.1049 64.515 3.9633C64.7181 3.33465 64.8841 2.6944 65.0122 2.04588L65.5829 2.30949C65.8995 2.4537 66.3008 2.62944 66.7935 2.83673C67.2862 3.04402 67.6853 3.21301 68.0041 3.34144C67.9075 3.40453 67.6623 3.94755 67.2684 4.97048C66.8745 5.99342 66.384 7.34532 65.7969 9.02618C65.2113 10.704 64.5544 12.6147 63.8261 14.7582C63.0978 16.9017 62.362 19.0918 61.6189 21.3284C60.8757 23.5666 60.1407 25.7649 59.4139 27.9235C58.6871 30.082 58.0465 32.0347 57.4921 33.7817C56.9362 35.5241 56.4851 36.9631 56.1388 38.0987C56.0749 38.193 55.9894 38.2703 55.8897 38.324C55.7899 38.3778 55.6788 38.4064 55.5658 38.4074C55.4319 38.4027 55.3025 38.3574 55.1944 38.2774C55.0863 38.1975 55.0044 38.0865 54.9594 37.959H54.9683ZM107.239 5.28142C106.548 5.94685 105.724 6.77301 104.769 7.7599C103.813 8.74679 102.792 9.80351 101.707 10.9301C100.619 12.0642 99.6229 13.1157 98.7177 14.0845C97.8125 15.0534 96.7505 16.1679 95.5318 17.4282V22.1598C96.4236 23.0611 108.583 34.0858 109.132 34.568C109.447 34.87 109.785 35.1458 110.144 35.3927C109.979 35.5594 109.708 35.8508 109.33 36.2669C108.953 36.683 108.627 37.0383 108.354 37.3327C108.073 37.6323 107.908 37.7991 107.883 37.8306C107.785 37.5993 107.456 37.1667 106.896 36.5328C106.335 35.8989 105.693 35.2087 104.969 34.4621C104.245 33.7141 95.5808 25.7807 95.5474 25.7469V27.0492C95.5474 27.8483 95.5555 28.9051 95.5719 30.2194C95.5897 31.5353 95.6143 32.0377 95.6477 33.304C95.6811 34.5703 95.7213 35.6924 95.7703 36.6838C95.8194 37.6752 95.8773 38.2407 95.942 38.4052H92.6758C92.7393 38.0173 92.781 37.6261 92.8006 37.2335C92.8497 36.5846 92.8905 35.7772 92.9232 34.8114C92.9559 33.8455 92.9805 32.7392 92.9968 31.4925C93.0147 30.2442 93.0303 29.7395 93.0459 28.4101C93.0615 27.0808 93.0704 25.7469 93.0704 24.4153V20.5151C93.0704 18.7125 93.054 16.7988 93.0213 14.774C92.9886 12.7491 92.9396 10.8527 92.8742 9.08476C92.8073 7.31978 92.7412 5.81391 92.6758 4.56716C92.6608 3.82295 92.5952 3.08066 92.4796 2.34554H95.8372C95.7703 2.51227 95.7213 3.02748 95.6901 3.8912C95.6588 4.75491 95.6254 5.74555 95.5897 6.86312C95.5585 7.97919 95.5258 9.09376 95.4916 10.2068C95.4574 11.3199 95.4411 12.2272 95.4426 12.9287V14.0755L98.1581 11.1464C98.9503 10.2977 99.8064 9.3739 100.726 8.375C101.647 7.3761 102.503 6.42827 103.297 5.53151C104.086 4.63024 104.769 3.8559 105.346 3.20849C105.695 2.84244 106.017 2.45083 106.309 2.03685L106.704 2.43567L107.569 3.3099C107.914 3.65914 108.218 3.94979 108.483 4.18187C108.041 4.51522 107.625 4.88285 107.239 5.28142ZM122.763 37.5805C122.551 37.2176 122.302 36.8778 122.02 36.5666C121.583 36.0363 121.045 35.4265 120.406 34.737C119.767 34.0475 119.062 33.3123 118.29 32.5312C117.519 31.7531 116.784 31.0261 116.086 30.3501C115.387 29.6742 114.776 29.0928 114.253 28.6062C113.934 28.2849 113.584 27.9972 113.207 27.7477C113.611 27.4324 113.997 27.0939 114.362 26.7338C114.957 26.175 115.625 25.5283 116.369 24.7938L118.614 22.5654C119.372 21.8144 119.983 21.2045 120.446 20.7359L121.189 19.9856C121.16 19.9585 120.919 19.7602 120.469 19.3682C120.018 18.9761 119.423 18.4872 118.685 17.8698C117.947 17.2525 117.194 16.6509 116.438 16.0673C115.682 15.4837 114.991 14.9565 114.364 14.4901C113.965 14.1734 113.534 13.9 113.078 13.6745C113.399 13.4382 113.698 13.1719 113.97 12.8791C114.448 12.4104 115.015 11.8299 115.671 11.1374C116.326 10.4449 117.025 9.68859 117.767 8.86844C118.51 8.04378 119.193 7.2642 119.818 6.52967C120.442 5.79513 120.962 5.15599 121.378 4.61223C121.663 4.28397 121.905 3.92055 122.098 3.53071C122.564 3.94303 122.941 4.27426 123.233 4.52436C123.525 4.77446 123.902 5.10567 124.368 5.51575C124.163 5.60437 123.77 5.92807 123.189 6.48685C122.608 7.04563 121.961 7.68478 121.249 8.40429C120.536 9.1253 119.822 9.86736 119.109 10.6304L117.388 12.4825C116.951 12.9542 116.717 13.2043 116.687 13.2328C116.716 13.2621 116.973 13.4829 117.452 13.8953C117.932 14.3076 118.567 14.8348 119.327 15.4725C120.087 16.1101 120.87 16.7523 121.641 17.3696C122.413 17.987 123.108 18.53 123.735 19.0009C124.361 19.4718 124.774 19.7219 124.979 19.749C124.634 19.9257 124.318 20.1536 124.04 20.4249C123.594 20.8215 123.074 21.2916 122.48 21.8354C121.885 22.3792 121.267 22.9672 120.625 23.5996C119.972 24.2335 119.369 24.8291 118.814 25.3864C118.26 25.9437 117.787 26.4281 117.396 26.8397C117.004 27.2528 116.764 27.5179 116.676 27.635L117.441 28.3831C117.921 28.8533 118.539 29.4541 119.296 30.1856C120.053 30.9172 120.816 31.6449 121.586 32.3689C122.357 33.0884 123.062 33.7276 123.701 34.2864C124.099 34.6552 124.522 34.994 124.968 35.3003L122.763 37.5805ZM142.266 5.83569C141.85 5.81766 141.375 5.80189 140.842 5.78387L139.17 5.73204C138.589 5.71702 138.081 5.70878 137.647 5.70727C137.614 7.0772 137.598 9.31233 137.598 10.8152V14.6456C137.598 15.8803 137.614 17.3028 137.647 18.913C137.681 20.7652 137.706 22.3844 137.723 23.7709C137.739 25.1573 137.755 26.6744 137.772 28.3223C137.787 29.9671 137.82 31.5097 137.872 32.9503C137.921 34.39 137.972 36.2241 138.022 37.2516C138.071 38.279 138.129 38.8626 138.195 39H134.851C134.916 38.8288 134.976 38.2317 135.025 37.1975C135.074 36.1633 135.117 34.3247 135.15 32.8534C135.183 31.3821 135.199 29.8296 135.199 28.1893C135.199 26.549 135.199 24.9695 135.226 23.5501C135.252 22.1306 135.25 20.9612 135.25 20.0374V18.6539C135.216 17.0827 135.199 15.6985 135.199 14.5014V10.7949C135.199 9.32584 135.217 7.13352 135.25 5.8019C134.851 5.8019 134.358 5.8019 133.777 5.82668C133.195 5.85147 132.619 5.85372 132.053 5.85372H130.515C130.247 5.84028 129.979 5.8569 129.714 5.90329C129.749 4.53787 129.749 3.54723 129.714 2.93137C129.978 2.98796 130.246 3.02186 130.515 3.03274C130.947 3.06879 131.439 3.10336 131.989 3.13641C132.538 3.16945 133.096 3.19499 133.661 3.21301C134.227 3.23104 134.708 3.2378 135.11 3.2378C135.11 2.33653 135.083 1.61101 135.034 1.02744C135.029 0.677907 134.971 0.331269 134.86 0H138.006C137.939 0.103646 137.897 0.450629 137.881 1.02744C137.865 1.60425 137.823 2.3478 137.756 3.2378C138.122 3.2378 138.588 3.2378 139.154 3.21301C139.72 3.18823 140.269 3.1702 140.802 3.13641C141.335 3.10261 141.809 3.07557 142.224 3.0598C142.639 3.04403 142.893 3.03274 143 3.03274V5.86948C142.933 5.86948 142.688 5.85371 142.275 5.83569H142.266ZM32.0847 23.4284L31.0837 26.4792L34.1113 27.4999L35.1124 24.4491L32.0847 23.4284ZM43.8141 34.3405C43.4425 33.4167 42.9869 32.2217 42.4474 30.7557C41.9079 29.2896 41.3059 27.6335 40.6415 25.7875C39.9786 23.9444 39.315 22.0585 38.6506 20.1298C37.9862 18.201 37.3367 16.3016 36.702 14.4315C36.0658 12.5584 35.4988 10.8677 35.0009 9.35963C34.503 7.85151 34.095 6.5935 33.7769 5.58558C33.5985 5.02004 33.4715 4.85331 33.3867 4.78121C33.3577 4.75417 33.3332 4.73615 33.3154 4.72038C33.301 4.70992 33.2853 4.70157 33.2686 4.69559C33.2445 4.68864 33.219 4.68864 33.195 4.69559C33.1103 4.72488 32.972 4.81952 32.7647 5.4797C32.4585 6.47109 32.0639 7.72834 31.5808 9.25148C31.0978 10.7746 30.5382 12.4795 29.902 14.3662C29.2659 16.2528 28.623 18.174 27.9735 20.1298C27.324 22.0855 26.6811 24 26.045 25.8731C25.4074 27.7462 24.8336 29.4158 24.3238 30.8819C23.814 32.3479 23.3852 33.5353 23.0374 34.4441C22.6926 35.3454 22.4785 35.8133 22.3953 35.8478C22.6718 35.9605 23.024 36.1107 23.4521 36.2985C23.8802 36.4862 24.2324 36.6364 24.5089 36.7491C24.7853 36.8753 24.9548 36.9519 25.0083 36.9744C25.1241 36.4065 25.273 35.846 25.4542 35.2958C25.744 34.2909 26.1312 33.0404 26.6157 31.5443C27.1003 30.0482 27.6465 28.3861 28.2544 26.558C28.8608 24.7255 29.4554 22.9364 30.038 21.191C30.6207 19.4455 31.1595 17.8248 31.6544 16.3287C32.1538 14.8356 32.5484 13.6549 32.8383 12.7867C33.1281 11.9185 33.2871 11.4573 33.3154 11.4032C33.3421 11.4603 33.5004 11.911 33.7903 12.7552C34.0801 13.5993 34.4814 14.759 34.9942 16.234C35.5055 17.7001 36.0517 19.2998 36.6329 21.0333C37.214 22.7667 37.8011 24.5339 38.3942 26.335C38.9887 28.1375 39.5349 29.7898 40.0329 31.2919C40.5308 32.794 40.9247 34.0445 41.2145 35.0434C41.4085 35.6173 41.5576 36.2057 41.6604 36.8032C41.8819 36.7206 42.2341 36.6019 42.7172 36.4472L43.9612 36.0484C44.3061 35.9372 44.5067 35.8674 44.5632 35.8388C44.4294 35.7645 44.1886 35.262 43.8141 34.3405ZM76.4874 23.4284L75.4863 26.4792L78.5051 27.4931L79.5061 24.4423L76.4874 23.4284ZM88.219 34.3405C87.8444 33.4167 87.3881 32.2217 86.8501 30.7557C86.312 29.2896 85.7101 27.6335 85.0442 25.7875C84.3828 23.9444 83.7191 22.0585 83.0533 20.1298C82.3874 18.201 81.7378 16.3016 81.1047 14.4315C80.47 12.5584 79.903 10.8677 79.4036 9.35963C78.9042 7.85151 78.4969 6.5935 78.1818 5.58558C78.0012 5.02004 77.8741 4.85331 77.7894 4.78121C77.7604 4.75417 77.7359 4.73615 77.7181 4.72038C77.7037 4.70992 77.6879 4.70157 77.6712 4.69559C77.6472 4.68864 77.6217 4.68864 77.5977 4.69559C77.5152 4.72488 77.3747 4.81952 77.1674 5.4797C76.8612 6.47109 76.4666 7.72834 75.9835 9.25148C75.5005 10.7746 74.9409 12.4795 74.3047 14.3662C73.67 16.2528 73.0272 18.174 72.3762 20.1298C71.7252 22.0855 71.0838 24 70.4521 25.8731C69.8145 27.7462 69.2408 29.4158 68.731 30.8819C68.2212 32.3479 67.7923 33.5353 67.4445 34.4441C67.0982 35.3454 66.8842 35.8133 66.8025 35.8478C67.0789 35.9605 67.4312 36.1107 67.8592 36.2985C68.2873 36.4787 68.6418 36.6319 68.9182 36.7491C69.1947 36.8663 69.3641 36.9519 69.4154 36.9744C69.5276 36.4067 69.6728 35.8462 69.8502 35.2958C70.1474 34.2909 70.5346 33.0404 71.0117 31.5443C71.4889 30.0482 72.0351 28.3861 72.6504 26.558C73.2598 24.7255 73.8543 22.9364 74.434 21.191C75.0137 19.4455 75.5525 17.8248 76.0504 16.3287C76.5498 14.8356 76.9444 13.6549 77.2343 12.7867C77.5241 11.9185 77.6831 11.4573 77.7114 11.4032C77.7381 11.4603 77.8972 11.911 78.1885 12.7552C78.4798 13.5993 78.8804 14.759 79.3902 16.234C79.9015 17.7001 80.4477 19.2998 81.0289 21.0333C81.61 22.7667 82.1979 24.5339 82.7924 26.335C83.3869 28.1375 83.9324 29.7898 84.4289 31.2919C84.9253 32.794 85.3199 34.0476 85.6127 35.0525C85.8024 35.6268 85.9478 36.2151 86.0475 36.8122C86.2689 36.7296 86.6212 36.6109 87.1043 36.4562L88.3483 36.0574C88.6931 35.9462 88.8938 35.8764 88.9503 35.8478C88.8343 35.7637 88.5906 35.2613 88.219 34.3405Z" fill="url(#paint0_linear_10_11)"/>
<defs>
<linearGradient id="paint0_linear_10_11" x1="54.6383" y1="-138.29" x2="75.1908" y2="51.5086" gradientUnits="userSpaceOnUse">
<stop stop-color="#D5AA73"/>
<stop offset="0.23" stop-color="#F5DA7E"/>
<stop offset="0.47" stop-color="#D7AE75"/>
<stop offset="0.65" stop-color="#E7C66A"/>
<stop offset="0.85" stop-color="#D9B076"/>
<stop offset="1" stop-color="#A97E52"/>
</linearGradient>
</defs>
</svg>
