<svg width="287" height="344" viewBox="0 0 287 344" fill="none" xmlns="http://www.w3.org/2000/svg">
<path d="M6.26442 289.262V287.16C6.66117 287.756 7.54266 288.87 8.9089 290.502L13.652 296.193C15.4418 298.353 17.3211 300.599 19.2899 302.931C21.2588 305.264 23.0725 307.392 24.731 309.316C26.3956 311.249 28.2913 313.486 30.4182 316.027V317.723L30.3198 311.038C30.2542 307.11 30.2049 303.68 30.1721 300.748C30.1393 297.816 30.105 294.621 30.0692 291.164C30.0394 287.704 29.9902 284.477 29.9216 281.482C29.8529 278.487 29.7694 275.959 29.671 273.898C29.5725 271.834 29.4562 270.736 29.322 270.605H36.4097C36.2832 271.715 36.216 272.83 36.2084 273.947C36.1397 275.913 36.0905 278.359 36.0607 281.285C36.0309 284.211 35.998 287.455 35.9622 291.016C35.9265 294.578 35.8922 298.054 35.8593 301.446C35.8265 304.837 35.8101 307.997 35.8101 310.927C35.8101 313.856 35.7445 316.185 35.6132 317.915V322.806C35.6132 324.202 35.6132 324.479 35.6625 326.774C35.7117 329.07 35.743 331.334 35.8101 333.562C35.8772 335.79 35.9622 337.79 36.0607 339.553C36.1591 341.315 36.2755 342.362 36.4097 342.685H29.3309C29.4638 342.358 29.5803 342.025 29.6799 341.687C29.8192 341.08 29.9031 340.461 29.9305 339.839C29.9932 338.944 30.0468 337.602 30.0782 335.848C30.1095 334.094 30.1319 325.49 30.1319 322.3C29.6605 321.632 28.7447 320.533 27.3845 319.003C26.0242 317.472 24.4611 315.742 22.6951 313.812C20.9291 311.883 19.099 309.871 17.2048 307.777C15.3105 305.683 13.5625 303.769 11.9606 302.036C10.3646 300.303 8.53453 298.341 6.47026 296.148C6.40761 300.005 6.37181 311.088 6.37181 314.014V323.495C6.37181 326.891 6.37181 328.515 6.42103 331.508C6.47025 334.501 6.50605 337.065 6.57317 339.19C6.64029 341.315 6.73873 342.519 6.87297 342.77H0C0.134238 342.501 0.232678 341.356 0.299796 339.324C0.366915 337.293 0.451931 334.752 0.550372 331.687C0.648813 328.622 0.715931 326.806 0.751727 323.079C0.787524 319.352 0.814372 315.71 0.850169 312.148C0.885965 308.587 0.917288 305.28 0.94861 302.215C0.979932 299.151 0.997831 296.761 0.997831 295.03V290.162C0.997831 288.9 0.997831 287.218 0.94861 285.124C0.89939 283.03 0.868067 280.963 0.800948 278.932C0.733829 276.9 0.635389 275.093 0.501152 273.495C0.366914 271.898 0.201356 270.932 0 270.601H6.78795C6.75912 270.734 6.69047 270.856 6.59106 270.95C6.52395 270.981 6.47473 271.267 6.43893 271.795C6.40313 272.323 6.37181 273.245 6.34049 274.542C6.30917 275.84 6.29127 277.885 6.29127 280.681L6.26442 289.262ZM110.321 341.933C109.593 339.645 108.656 336.789 107.511 333.365C106.365 329.941 105.065 326.099 103.609 321.839C102.147 317.586 100.656 313.261 99.1345 308.864C97.6131 304.467 96.0888 300.181 94.5614 296.005C93.0401 291.829 91.6589 288.068 90.418 284.721C89.177 281.374 88.1329 278.66 87.2858 276.578C86.4266 274.484 85.8718 273.339 85.6167 273.151C85.7465 273.088 86.2074 272.927 86.9994 272.672C87.7914 272.417 88.7445 272.117 89.8587 271.777C90.9728 271.437 91.7782 271.155 92.2839 270.967C92.2839 271.346 92.618 272.68 93.2862 274.967C93.9544 277.255 94.8597 280.096 96.0023 283.491C97.1418 286.885 98.3962 290.632 99.7654 294.73C101.135 298.828 102.477 302.845 103.793 306.779C105.126 310.716 106.38 314.351 107.556 317.683C108.731 321.014 109.651 323.65 110.316 325.589C110.983 327.526 111.35 328.555 111.413 328.685C111.475 328.554 111.841 327.51 112.509 325.553C113.177 323.596 114.083 320.912 115.225 317.499L118.939 306.452L123.033 294.26C124.429 290.105 125.684 286.327 126.796 282.927C127.909 279.527 128.804 276.693 129.481 274.426C129.889 273.178 130.222 271.906 130.479 270.618L131.624 271.142C132.26 271.428 133.065 271.777 134.054 272.189C135.043 272.6 135.844 272.936 136.484 273.191C136.29 273.316 135.798 274.395 135.007 276.426C134.217 278.457 133.232 281.142 132.054 284.48C130.879 287.811 129.56 291.605 128.098 295.862C126.637 300.118 125.16 304.467 123.669 308.909C122.177 313.353 120.702 317.718 119.243 322.005C117.785 326.291 116.499 330.169 115.386 333.638C114.271 337.098 113.365 339.955 112.67 342.21C112.542 342.397 112.37 342.551 112.17 342.658C111.97 342.764 111.747 342.821 111.52 342.823C111.251 342.814 110.992 342.724 110.775 342.565C110.558 342.406 110.393 342.186 110.303 341.933H110.321ZM215.228 277.043C213.84 278.365 212.188 280.005 210.27 281.965C208.352 283.925 206.304 286.023 204.126 288.26C201.943 290.512 199.942 292.6 198.126 294.524C196.309 296.448 194.178 298.661 191.732 301.164V310.56C193.521 312.349 217.926 334.242 219.027 335.199C219.658 335.799 220.338 336.347 221.058 336.837C220.727 337.168 220.182 337.747 219.425 338.573C218.667 339.399 218.014 340.104 217.465 340.689C216.901 341.284 216.57 341.615 216.521 341.678C216.324 341.219 215.663 340.359 214.539 339.101C213.414 337.842 212.125 336.471 210.672 334.989C209.218 333.504 191.83 317.75 191.763 317.683V320.269C191.763 321.856 191.779 323.954 191.812 326.564C191.848 329.177 191.897 330.175 191.964 332.689C192.031 335.204 192.112 337.432 192.21 339.401C192.309 341.369 192.425 342.492 192.555 342.819H186C186.127 342.049 186.211 341.272 186.25 340.492C186.349 339.204 186.431 337.6 186.496 335.682C186.562 333.764 186.611 331.568 186.644 329.092C186.68 326.613 186.711 325.611 186.742 322.971C186.774 320.331 186.792 317.683 186.792 315.038V307.294C186.792 303.714 186.759 299.914 186.693 295.893C186.628 291.872 186.529 288.107 186.398 284.596C186.264 281.091 186.131 278.101 186 275.625C185.97 274.147 185.838 272.673 185.606 271.214H192.345C192.21 271.545 192.112 272.568 192.049 274.283C191.987 275.998 191.919 277.965 191.848 280.184C191.785 282.401 191.72 284.614 191.651 286.824C191.582 289.034 191.55 290.836 191.553 292.229V294.506L197.003 288.69C198.593 287.004 200.311 285.17 202.157 283.186C204.004 281.203 205.724 279.321 207.317 277.54C208.901 275.75 210.271 274.213 211.429 272.927C212.129 272.2 212.776 271.423 213.362 270.601L214.154 271.392L215.89 273.128C216.583 273.822 217.192 274.399 217.724 274.86C216.837 275.522 216.002 276.252 215.228 277.043ZM246.384 341.181C245.958 340.461 245.459 339.786 244.894 339.168C244.017 338.115 242.937 336.904 241.655 335.535C240.372 334.166 238.956 332.706 237.408 331.155C235.86 329.609 234.385 328.166 232.983 326.824C231.581 325.481 230.355 324.327 229.305 323.36C228.665 322.722 227.962 322.151 227.206 321.656C228.017 321.03 228.791 320.357 229.524 319.642C230.717 318.533 232.06 317.249 233.551 315.79L238.057 311.365C239.578 309.874 240.804 308.663 241.735 307.732L243.225 306.242C243.167 306.188 242.684 305.795 241.78 305.016C240.876 304.238 239.681 303.267 238.2 302.041C236.719 300.815 235.207 299.62 233.69 298.461C232.173 297.303 230.786 296.256 229.528 295.33C228.727 294.701 227.862 294.158 226.947 293.71C227.591 293.241 228.191 292.712 228.736 292.13C229.697 291.2 230.835 290.047 232.15 288.672C233.466 287.297 234.868 285.795 236.357 284.166C237.848 282.529 239.22 280.981 240.473 279.522C241.726 278.064 242.77 276.794 243.605 275.715C244.176 275.063 244.662 274.341 245.051 273.567C245.986 274.386 246.742 275.043 247.328 275.54C247.914 276.037 248.671 276.694 249.606 277.509C249.194 277.685 248.405 278.327 247.239 279.437C246.072 280.547 244.775 281.816 243.346 283.245C241.914 284.676 240.482 286.15 239.05 287.665L235.596 291.343C234.719 292.28 234.251 292.776 234.191 292.833C234.249 292.891 234.764 293.33 235.726 294.148C236.688 294.967 237.963 296.014 239.489 297.28C241.015 298.546 242.585 299.822 244.133 301.048C245.682 302.273 247.078 303.352 248.335 304.287C249.592 305.222 250.42 305.719 250.832 305.772C250.141 306.123 249.506 306.576 248.948 307.115C248.053 307.902 247.009 308.836 245.816 309.915C244.623 310.995 243.382 312.163 242.093 313.419C240.783 314.678 239.572 315.86 238.46 316.967C237.347 318.073 236.398 319.035 235.614 319.853C234.826 320.673 234.345 321.199 234.169 321.432L235.703 322.918C236.667 323.851 237.908 325.044 239.426 326.497C240.945 327.95 242.476 329.395 244.022 330.832C245.57 332.261 246.985 333.53 248.268 334.64C249.065 335.372 249.914 336.045 250.81 336.653L246.384 341.181ZM285.528 278.144C284.691 278.108 283.738 278.077 282.669 278.041L279.313 277.938C278.146 277.908 277.128 277.892 276.257 277.889C276.189 280.609 276.158 285.048 276.158 288.032V295.638C276.158 298.09 276.191 300.915 276.257 304.112C276.325 307.79 276.376 311.006 276.409 313.759C276.441 316.512 276.474 319.525 276.507 322.797C276.537 326.063 276.604 329.126 276.708 331.987C276.807 334.846 276.91 338.488 277.008 340.528C277.107 342.568 277.223 343.727 277.357 344H270.645C270.775 343.66 270.896 342.474 270.994 340.421C271.093 338.367 271.178 334.716 271.245 331.794C271.312 328.873 271.343 325.79 271.343 322.533C271.343 319.276 271.343 316.139 271.397 313.32C271.451 310.502 271.446 308.179 271.446 306.345V303.598C271.378 300.478 271.343 297.729 271.343 295.352V287.992C271.343 285.075 271.379 280.721 271.446 278.077C270.645 278.077 269.656 278.077 268.489 278.126C267.321 278.175 266.166 278.18 265.03 278.18H261.942C261.405 278.153 260.866 278.186 260.336 278.278C260.405 275.567 260.405 273.6 260.336 272.377C260.865 272.489 261.402 272.557 261.942 272.578C262.81 272.65 263.796 272.718 264.9 272.784C266.004 272.85 267.122 272.9 268.256 272.936C269.392 272.972 270.359 272.985 271.164 272.985C271.164 271.196 271.111 269.755 271.012 268.596C271.003 267.902 270.885 267.214 270.663 266.556H276.977C276.843 266.762 276.758 267.451 276.726 268.596C276.695 269.741 276.61 271.218 276.476 272.985C277.21 272.985 278.145 272.985 279.281 272.936C280.418 272.887 281.519 272.851 282.588 272.784C283.657 272.717 284.611 272.663 285.443 272.632C286.275 272.601 286.785 272.578 287 272.578V278.211C286.866 278.211 286.374 278.18 285.546 278.144H285.528ZM64.3938 313.079L62.3847 319.137L68.4612 321.164L70.4703 315.106L64.3938 313.079ZM87.9346 334.747C87.1888 332.913 86.2745 330.54 85.1917 327.629C84.1088 324.718 82.9007 321.429 81.5672 317.763C80.2368 314.103 78.9049 310.358 77.5714 306.528C76.238 302.699 74.9344 298.927 73.6606 295.213C72.3839 291.494 71.2459 288.136 70.2465 285.142C69.2472 282.147 68.4284 279.649 67.79 277.647C67.432 276.524 67.177 276.193 67.0069 276.05C66.9488 275.996 66.8995 275.961 66.8637 275.929C66.8349 275.909 66.8033 275.892 66.7698 275.88C66.7215 275.866 66.6704 275.866 66.6221 275.88C66.4521 275.938 66.1747 276.126 65.7585 277.437C65.144 279.406 64.352 281.902 63.3825 284.927C62.413 287.952 61.2899 291.337 60.0132 295.083C58.7364 298.83 57.4462 302.645 56.1426 306.528C54.839 310.412 53.5489 314.214 52.2721 317.933C50.9924 321.653 49.8409 324.968 48.8177 327.879C47.7946 330.791 46.9339 333.149 46.2359 334.953C45.5438 336.743 45.1143 337.672 44.9472 337.741C45.5021 337.964 46.2091 338.263 47.0682 338.635C47.9273 339.008 48.6343 339.307 49.1891 339.53C49.744 339.781 50.084 339.933 50.1914 339.978C50.424 338.85 50.7228 337.737 51.0864 336.644C51.668 334.649 52.4451 332.166 53.4176 329.195C54.3901 326.224 55.4864 322.923 56.7064 319.293C57.9235 315.654 59.1168 312.102 60.2861 308.636C61.4555 305.17 62.5368 301.951 63.5302 298.98C64.5325 296.016 65.3245 293.671 65.9062 291.947C66.4879 290.223 66.8071 289.307 66.8637 289.2C66.9174 289.313 67.2351 290.208 67.8168 291.884C68.3985 293.561 69.2039 295.863 70.2331 298.793C71.2593 301.704 72.3556 304.88 73.5219 308.323C74.6883 311.765 75.8666 315.274 77.0569 318.85C78.2501 322.43 79.3464 325.711 80.3457 328.694C81.345 331.677 82.1355 334.16 82.7172 336.143C83.1066 337.283 83.4058 338.451 83.6121 339.638C84.0566 339.474 84.7636 339.238 85.7331 338.931L88.2299 338.139C88.922 337.918 89.3247 337.779 89.438 337.723C89.1696 337.575 88.6863 336.577 87.9346 334.747ZM153.51 313.079L151.501 319.137L157.559 321.15L159.568 315.092L153.51 313.079ZM177.055 334.747C176.303 332.913 175.387 330.54 174.308 327.629C173.228 324.718 172.02 321.429 170.683 317.763C169.356 314.103 168.024 310.358 166.687 306.528C165.351 302.699 164.047 298.927 162.777 295.213C161.503 291.494 160.365 288.136 159.362 285.142C158.36 282.147 157.543 279.649 156.91 277.647C156.548 276.524 156.293 276.193 156.123 276.05C156.065 275.996 156.015 275.961 155.98 275.929C155.951 275.909 155.919 275.892 155.886 275.88C155.837 275.866 155.786 275.866 155.738 275.88C155.572 275.938 155.291 276.126 154.874 277.437C154.26 279.406 153.468 281.902 152.498 284.927C151.529 287.952 150.406 291.337 149.129 295.083C147.855 298.83 146.565 302.645 145.258 306.528C143.952 310.412 142.665 314.214 141.397 317.933C140.117 321.653 138.966 324.968 137.943 327.879C136.919 330.791 136.059 333.149 135.361 334.953C134.666 336.743 134.236 337.672 134.072 337.741C134.627 337.964 135.334 338.263 136.193 338.635C137.052 338.993 137.764 339.298 138.318 339.53C138.873 339.763 139.213 339.933 139.316 339.978C139.541 338.85 139.833 337.737 140.189 336.644C140.785 334.649 141.562 332.166 142.52 329.195C143.478 326.224 144.574 322.923 145.809 319.293C147.032 315.654 148.225 312.102 149.389 308.636C150.552 305.17 151.633 301.951 152.633 298.98C153.635 296.016 154.427 293.671 155.009 291.947C155.59 290.223 155.91 289.307 155.966 289.2C156.02 289.313 156.339 290.208 156.924 291.884C157.508 293.561 158.312 295.863 159.336 298.793C160.362 301.704 161.458 304.88 162.624 308.323C163.791 311.765 164.971 315.274 166.164 318.85C167.357 322.43 168.452 325.711 169.448 328.694C170.444 331.677 171.236 334.166 171.824 336.161C172.205 337.302 172.497 338.47 172.697 339.656C173.141 339.492 173.848 339.256 174.818 338.949L177.314 338.157C178.007 337.936 178.409 337.797 178.523 337.741C178.29 337.574 177.801 336.576 177.055 334.747ZM258.515 83.5828C257.996 81.9766 257.454 80.3793 256.873 78.7999C251.438 64.0828 243.18 50.5694 232.562 39.0196C231.426 37.7818 230.265 36.5663 229.081 35.3732C217.928 24.1548 204.666 15.2538 190.058 9.18282C175.45 3.11189 159.785 -0.00897569 143.965 1.93892e-05H143.017C76.6944 1.93892e-05 22.7399 53.9501 22.7399 120.267C22.7147 138.065 26.6524 155.646 34.2674 171.734C41.8823 187.822 52.9835 202.013 66.7653 213.277C67.2357 213.665 67.8178 213.892 68.4265 213.925C69.0352 213.958 69.6385 213.795 70.1481 213.46C70.561 213.181 70.8971 212.802 71.1254 212.359C71.3537 211.915 71.4669 211.422 71.4547 210.923V150.75C71.4547 149.161 72.4749 147.533 74.3273 146.155L84.8158 138.352C85.0097 138.207 85.2451 138.129 85.487 138.129C85.7288 138.129 85.9642 138.207 86.1582 138.352L96.5526 146.155C98.3827 147.524 99.3895 149.148 99.3895 150.718V209.062L94.5972 219.492C94.0483 220.486 93.7823 221.612 93.8281 222.747C93.8738 223.882 94.2296 224.983 94.8568 225.93C95.4699 226.821 96.2943 227.547 97.2562 228.042C98.2182 228.537 99.2878 228.786 100.369 228.767H186.613C187.694 228.788 188.764 228.54 189.725 228.044C190.687 227.549 191.51 226.823 192.121 225.93C192.75 224.984 193.107 223.883 193.153 222.748C193.2 221.612 192.934 220.486 192.385 219.492L187.593 209.062V150.723C187.593 149.152 188.599 147.528 190.429 146.159L200.837 138.347C201.027 138.205 201.258 138.128 201.495 138.128C201.732 138.128 201.963 138.205 202.153 138.347L212.655 146.159C214.507 147.537 215.527 149.17 215.527 150.754V210.901C215.516 211.4 215.628 211.895 215.854 212.34C216.081 212.785 216.414 213.167 216.825 213.451C217.336 213.789 217.941 213.954 218.553 213.922C219.164 213.889 219.749 213.662 220.221 213.272C238.868 197.983 252.489 177.443 259.317 154.317C266.146 131.191 265.866 106.548 258.515 83.5828ZM251.736 78.7194C246.692 80.6001 241.156 80.6976 236.049 78.9955C230.942 77.2935 226.572 73.8945 223.665 69.3639C220.758 64.8333 219.49 59.4442 220.071 54.0929C220.653 48.7416 223.049 43.7507 226.862 39.9503C227.309 40.4335 227.815 40.9033 228.271 41.3955C238.412 52.2165 246.379 64.8863 251.736 78.7149V78.7194ZM188.089 221.568L188.183 221.751C188.311 221.979 188.377 222.237 188.374 222.499C188.372 222.761 188.301 223.017 188.169 223.243C188.037 223.469 187.849 223.657 187.622 223.787C187.395 223.918 187.138 223.987 186.877 223.988H100.105C99.8438 223.987 99.5869 223.918 99.3601 223.787C99.1334 223.657 98.9448 223.469 98.8128 223.243C98.6808 223.017 98.6101 222.761 98.6077 222.499C98.6052 222.237 98.6711 221.979 98.7989 221.751L103.3 211.993H183.677L188.089 221.568ZM120.044 207.201V104.187C120.044 101.234 121.834 98.2627 125.141 95.8153L142.762 82.7103C143.019 82.5705 143.308 82.4973 143.601 82.4973C143.894 82.4973 144.182 82.5705 144.44 82.7103L161.913 95.8243C165.157 98.2582 166.942 101.193 166.942 104.146V207.201H120.044ZM229.962 197.358C226.933 200.739 223.705 203.938 220.297 206.937V150.75C220.297 147.618 218.597 144.625 215.501 142.325L203.504 133.403C202.918 132.98 202.214 132.752 201.491 132.752C200.768 132.752 200.063 132.98 199.477 133.403L187.575 142.352C184.519 144.647 182.836 147.622 182.836 150.732V207.201H171.717V104.164C171.717 99.69 169.251 95.3813 164.777 92.0257L147.303 78.8938C146.22 78.137 144.931 77.7311 143.61 77.7311C142.288 77.7311 140.999 78.137 139.916 78.8938L122.295 91.9988C117.767 95.3679 115.27 99.6989 115.27 104.2V207.201H104.159V150.723C104.159 147.613 102.477 144.638 99.4164 142.343L87.5184 133.394C86.9358 132.963 86.2299 132.73 85.5049 132.73C84.7798 132.73 84.0739 132.963 83.4913 133.394L71.4949 142.343C68.3985 144.642 66.6982 147.636 66.6982 150.768V206.941C63.2912 203.942 60.0639 200.745 57.0331 197.367V122.795C57.0294 122.488 57.1466 122.192 57.3593 121.971C57.5719 121.75 57.863 121.622 58.1696 121.614H101.909C102.502 121.614 103.071 121.378 103.491 120.958C103.91 120.539 104.146 119.97 104.146 119.377V65.2385C104.146 64.9419 104.264 64.6574 104.474 64.4476C104.683 64.2378 104.968 64.12 105.265 64.12H181.695C181.844 64.12 181.991 64.1493 182.128 64.2062C182.265 64.2632 182.389 64.3466 182.494 64.4518C182.599 64.557 182.682 64.6818 182.738 64.8191C182.795 64.9564 182.823 65.1035 182.823 65.252V119.39C182.828 119.976 183.064 120.535 183.478 120.95C183.892 121.364 184.452 121.599 185.038 121.605H228.857C229.003 121.604 229.146 121.632 229.281 121.688C229.415 121.743 229.537 121.824 229.64 121.927C229.743 122.03 229.824 122.152 229.88 122.286C229.935 122.421 229.963 122.565 229.962 122.71V197.358ZM232.5 116.853H188.698C188.405 116.852 188.125 116.735 187.918 116.528C187.711 116.321 187.594 116.041 187.593 115.748V61.5786C187.587 60.9892 187.348 60.4259 186.929 60.0112C186.51 59.5965 185.945 59.3639 185.355 59.3639H101.604C101.015 59.3698 100.452 59.6081 100.037 60.027C99.6221 60.4459 99.3895 61.0115 99.3895 61.601V115.739C99.3895 116.036 99.2717 116.32 99.0619 116.53C98.8521 116.74 98.5676 116.858 98.2709 116.858H54.4557C53.8707 116.858 53.3096 117.09 52.8959 117.504C52.4822 117.917 52.2497 118.478 52.2497 119.063V191.707C36.1933 171.36 27.4774 146.189 27.5142 120.271C27.5142 56.5854 79.3299 4.77401 143.017 4.77401H143.965C173.578 4.75982 202.057 16.1599 223.479 36.6036C218.904 41.1721 216.029 47.1672 215.331 53.5942C214.633 60.0213 216.153 66.4939 219.64 71.9381C223.126 77.3823 228.37 81.4709 234.5 83.5255C240.63 85.5801 247.278 85.4772 253.342 83.2338C253.678 84.2092 254.018 85.1801 254.327 86.1644C259.844 104.033 260.944 122.973 257.531 141.36C254.119 159.746 246.295 177.031 234.732 191.729V119.09C234.731 118.498 234.496 117.931 234.077 117.513C233.659 117.094 233.091 116.859 232.5 116.858V116.853Z" fill="url(#paint0_linear_11_17)"/>
<defs>
<linearGradient id="paint0_linear_11_17" x1="109.659" y1="-8.05357" x2="150.049" y2="368.931" gradientUnits="userSpaceOnUse">
<stop stop-color="#D5AA73"/>
<stop offset="0.23" stop-color="#F5DA7E"/>
<stop offset="0.47" stop-color="#D7AE75"/>
<stop offset="0.65" stop-color="#E7C66A"/>
<stop offset="0.85" stop-color="#D9B076"/>
<stop offset="1" stop-color="#A97E52"/>
</linearGradient>
</defs>
</svg>
